<svg width="184" height="47" viewBox="0 0 184 47" fill="none" xmlns="http://www.w3.org/2000/svg">
<g filter="url(#filter0_di_1_5)">
<path d="M8.83156 31.68C8.0049 31.68 7.21823 31.44 6.47156 30.96C5.7249 30.48 5.1649 29.76 4.79156 28.8C4.65823 28.4533 4.57823 28.08 4.55156 27.68C4.49823 27.3067 4.47156 26.9333 4.47156 26.56C4.47156 26.1867 4.53823 26 4.67156 26C4.8049 26 4.87156 26.1067 4.87156 26.32C4.87156 27.5733 5.19156 28.52 5.83156 29.16C6.4449 29.8 7.23156 30.12 8.19156 30.12C9.1249 30.12 10.0316 29.8533 10.9116 29.32C11.7649 28.7867 12.5649 28.1067 13.3116 27.28C14.5649 25.92 15.6982 24.3733 16.7116 22.64C17.7516 20.88 18.6849 19.0667 19.5116 17.2C19.7249 16.7467 20.0316 16.0267 20.4316 15.04C20.8316 14.0267 21.2716 12.9333 21.7516 11.76C22.2316 10.56 22.6982 9.48 23.1516 8.52C23.5516 7.61333 23.8849 6.89333 24.1516 6.36C24.4449 5.82667 24.8316 5.37333 25.3116 5C25.7916 4.62667 26.5116 4.25333 27.4716 3.88C27.0449 3.90667 26.6449 3.94667 26.2716 4C25.8982 4.02666 25.6049 4.04 25.3916 4.04C24.3782 4.06667 23.3649 4.13333 22.3516 4.24C21.3382 4.34666 20.4316 4.54667 19.6316 4.84C18.8316 5.10667 18.2582 5.49333 17.9116 6C17.6716 6.34667 17.5516 6.74667 17.5516 7.2C17.5516 7.65333 17.6716 8.09333 17.9116 8.52C18.1516 8.94667 18.4582 9.25333 18.8316 9.44C18.8849 9.49333 18.9116 9.53333 18.9116 9.56C18.9116 9.61333 18.8449 9.68 18.7116 9.76C18.6049 9.81333 18.4849 9.82667 18.3516 9.8C18.1382 9.66667 17.8716 9.45333 17.5516 9.16C17.2316 8.84 16.9382 8.50667 16.6716 8.16C16.4316 7.81333 16.2716 7.52 16.1916 7.28C16.0849 6.96 16.0316 6.64 16.0316 6.32C16.0316 5.68 16.2582 5.16 16.7116 4.76C17.1916 4.36 17.8049 4.05333 18.5516 3.84C19.2982 3.62667 20.0982 3.48 20.9516 3.4C21.8316 3.29333 22.6716 3.24 23.4716 3.24C24.2982 3.21333 25.0049 3.2 25.5916 3.2H29.9116C29.9649 3.2 29.9916 3.21333 29.9916 3.24C29.9916 3.32 29.8982 3.44 29.7116 3.6C29.5516 3.73333 29.4449 3.8 29.3916 3.8C28.6449 3.82667 27.9782 4.10667 27.3916 4.64C26.8316 5.17333 26.3382 5.78667 25.9116 6.48C25.5116 7.14667 25.1782 7.76 24.9116 8.32C24.7516 8.64 24.4982 9.16 24.1516 9.88C23.8316 10.5733 23.4716 11.3733 23.0716 12.28C22.6982 13.16 22.3116 14.04 21.9116 14.92C21.5382 15.8 21.2049 16.56 20.9116 17.2C20.2182 18.8 19.5649 20.2933 18.9516 21.68C18.3649 23.04 17.7116 24.32 16.9916 25.52C16.2716 26.72 15.3782 27.8933 14.3116 29.04C13.6449 29.76 12.8049 30.3733 11.7916 30.88C10.7516 31.4133 9.7649 31.68 8.83156 31.68ZM25.1166 25.32C24.0232 25.32 23.2632 25.1067 22.8366 24.68C22.4099 24.2533 22.1966 23.7333 22.1966 23.12C22.1966 22.3467 22.3966 21.52 22.7966 20.64C23.2232 19.76 23.6232 19.0133 23.9966 18.4C24.4232 17.76 24.9966 17.0933 25.7166 16.4C26.4366 15.7067 27.2232 15.12 28.0766 14.64C28.9299 14.16 29.7566 13.92 30.5566 13.92C31.2499 13.92 31.7299 14.0933 31.9966 14.44C32.2632 14.76 32.3966 15.1467 32.3966 15.6C32.3966 16.4267 32.1432 17.1067 31.6366 17.64C31.1566 18.1733 30.5566 18.6133 29.8366 18.96C29.1166 19.28 28.4232 19.5467 27.7566 19.76C27.3566 19.8667 26.8899 19.9733 26.3566 20.08C25.8232 20.1867 25.3166 20.24 24.8366 20.24C24.6499 20.72 24.5032 21.1867 24.3966 21.64C24.2899 22.0933 24.2366 22.5067 24.2366 22.88C24.2366 23.3333 24.3432 23.7067 24.5566 24C24.7966 24.2933 25.1832 24.44 25.7166 24.44C25.9299 24.44 26.1832 24.4133 26.4766 24.36C26.7699 24.3067 27.0899 24.2267 27.4366 24.12C28.2366 23.8533 29.0232 23.4267 29.7966 22.84C30.5699 22.2533 31.2766 21.6267 31.9166 20.96C32.5832 20.2667 33.0899 19.6933 33.4366 19.24C33.5166 19.32 33.5566 19.4133 33.5566 19.52C33.5566 19.6533 33.4632 19.8667 33.2766 20.16C32.7432 20.9067 32.0499 21.68 31.1966 22.48C30.3432 23.28 29.3966 23.96 28.3566 24.52C27.3166 25.0533 26.2366 25.32 25.1166 25.32ZM25.1566 19.44C25.5032 19.4667 25.8899 19.4667 26.3166 19.44C26.7699 19.3867 27.2099 19.2933 27.6366 19.16C28.7299 18.84 29.5166 18.3333 29.9966 17.64C30.5032 16.92 30.7566 16.28 30.7566 15.72C30.7566 15.4 30.6899 15.1333 30.5566 14.92C30.4232 14.7067 30.2099 14.6 29.9166 14.6C29.1432 14.6 28.4499 14.8933 27.8366 15.48C27.2232 16.04 26.6899 16.6933 26.2366 17.44C25.7832 18.1867 25.4232 18.8533 25.1566 19.44ZM36.0775 25.24C35.7042 25.24 35.3842 25.1067 35.1175 24.84C34.8508 24.5733 34.7175 24.1067 34.7175 23.44C34.7175 22.8533 34.7575 22.16 34.8375 21.36C34.9442 20.56 35.0908 19.7467 35.2775 18.92C35.4642 18.0667 35.6775 17.32 35.9175 16.68C35.4642 17.3467 34.9575 18.04 34.3975 18.76C33.8375 19.4533 33.3708 20.04 32.9975 20.52C32.9175 20.6267 32.8508 20.68 32.7975 20.68C32.7442 20.68 32.7175 20.6133 32.7175 20.48C32.7175 20.2667 32.7842 20.0667 32.9175 19.88C33.4775 19.1067 34.1042 18.2267 34.7975 17.24C35.5175 16.2533 36.1308 15.36 36.6375 14.56C36.9308 14.5067 37.2775 14.4267 37.6775 14.32C38.1042 14.2133 38.4108 14.0667 38.5975 13.88C38.7308 13.8 38.8108 13.76 38.8375 13.76C38.9175 13.76 38.9575 13.8133 38.9575 13.92C38.9575 14 38.9175 14.0933 38.8375 14.2C38.5975 14.5467 38.3308 15.0933 38.0375 15.84C37.7442 16.56 37.4642 17.3733 37.1975 18.28C36.9308 19.16 36.7042 20.0267 36.5175 20.88C36.3575 21.7333 36.2775 22.44 36.2775 23C36.2775 23.4267 36.3442 23.72 36.4775 23.88C36.6375 24.04 36.8108 24.12 36.9975 24.12C37.3708 24.12 37.7575 23.9467 38.1575 23.6C38.5842 23.2533 38.9975 22.8267 39.3975 22.32C39.8242 21.8133 40.1975 21.32 40.5175 20.84C40.8375 20.36 41.0775 19.9867 41.2375 19.72C41.7708 18.8667 42.2775 17.9467 42.7575 16.96C43.2642 15.9467 43.6908 15.1467 44.0375 14.56C44.3308 14.5067 44.6775 14.4267 45.0775 14.32C45.5042 14.2133 45.8242 14.0667 46.0375 13.88C46.1175 13.8 46.1842 13.76 46.2375 13.76C46.3175 13.76 46.3575 13.8133 46.3575 13.92C46.3842 14 46.3575 14.0933 46.2775 14.2C46.0375 14.5467 45.7842 15.08 45.5175 15.8C45.2508 16.52 44.9842 17.32 44.7175 18.2C44.4775 19.0533 44.2775 19.9067 44.1175 20.76C43.9575 21.5867 43.8775 22.2933 43.8775 22.88C43.8775 23.68 44.1708 24.08 44.7575 24.08C45.1575 24.08 45.5975 23.9333 46.0775 23.64C46.5842 23.3467 46.9975 23.04 47.3175 22.72C48.2242 21.7867 48.9842 20.8667 49.5975 19.96C50.2108 19.0533 50.7308 18.0133 51.1575 16.84C51.3175 16.44 51.4242 16.0933 51.4775 15.8C51.5308 15.48 51.5575 15.1867 51.5575 14.92C51.5575 14.5467 51.4908 14.2533 51.3575 14.04C51.2508 13.8 51.1308 13.6667 50.9975 13.64C50.8642 13.5867 50.7975 13.52 50.7975 13.44C50.7975 13.3867 50.8642 13.3333 50.9975 13.28C51.1308 13.2 51.2775 13.1733 51.4375 13.2C51.8642 13.3067 52.2242 13.5067 52.5175 13.8C52.8375 14.0667 52.9975 14.4667 52.9975 15C52.9975 15.4267 52.9042 15.88 52.7175 16.36C52.3442 17.3467 51.7975 18.3733 51.0775 19.44C50.3842 20.48 49.5975 21.4533 48.7175 22.36C47.8375 23.2667 46.9175 24 45.9575 24.56C45.6108 24.7467 45.2508 24.9067 44.8775 25.04C44.5042 25.1733 44.1442 25.24 43.7975 25.24C43.3708 25.24 42.9975 25.1067 42.6775 24.84C42.3842 24.5733 42.2375 24.1067 42.2375 23.44C42.2375 22.7467 42.3042 21.92 42.4375 20.96C42.5975 20 42.7975 19.0667 43.0375 18.16C42.8508 18.4533 42.6642 18.7733 42.4775 19.12C42.3175 19.44 42.1308 19.7733 41.9175 20.12C41.2508 21.08 40.5575 21.9867 39.8375 22.84C39.1442 23.6933 38.5442 24.2667 38.0375 24.56C37.7175 24.7467 37.3842 24.9067 37.0375 25.04C36.6908 25.1733 36.3708 25.24 36.0775 25.24ZM55.0775 25.32C53.9842 25.32 53.2242 25.1067 52.7975 24.68C52.3708 24.2533 52.1575 23.7333 52.1575 23.12C52.1575 22.3467 52.3575 21.52 52.7575 20.64C53.1842 19.76 53.5842 19.0133 53.9575 18.4C54.3842 17.76 54.9575 17.0933 55.6775 16.4C56.3975 15.7067 57.1842 15.12 58.0375 14.64C58.8908 14.16 59.7175 13.92 60.5175 13.92C61.2108 13.92 61.6908 14.0933 61.9575 14.44C62.2242 14.76 62.3575 15.1467 62.3575 15.6C62.3575 16.4267 62.1042 17.1067 61.5975 17.64C61.1175 18.1733 60.5175 18.6133 59.7975 18.96C59.0775 19.28 58.3842 19.5467 57.7175 19.76C57.3175 19.8667 56.8508 19.9733 56.3175 20.08C55.7842 20.1867 55.2775 20.24 54.7975 20.24C54.6108 20.72 54.4642 21.1867 54.3575 21.64C54.2508 22.0933 54.1975 22.5067 54.1975 22.88C54.1975 23.3333 54.3042 23.7067 54.5175 24C54.7575 24.2933 55.1442 24.44 55.6775 24.44C55.8908 24.44 56.1442 24.4133 56.4375 24.36C56.7308 24.3067 57.0508 24.2267 57.3975 24.12C58.1975 23.8533 58.9842 23.4267 59.7575 22.84C60.5308 22.2533 61.2375 21.6267 61.8775 20.96C62.5442 20.2667 63.0508 19.6933 63.3975 19.24C63.4775 19.32 63.5175 19.4133 63.5175 19.52C63.5175 19.6533 63.4242 19.8667 63.2375 20.16C62.7042 20.9067 62.0108 21.68 61.1575 22.48C60.3042 23.28 59.3575 23.96 58.3175 24.52C57.2775 25.0533 56.1975 25.32 55.0775 25.32ZM55.1175 19.44C55.4642 19.4667 55.8508 19.4667 56.2775 19.44C56.7308 19.3867 57.1708 19.2933 57.5975 19.16C58.6908 18.84 59.4775 18.3333 59.9575 17.64C60.4642 16.92 60.7175 16.28 60.7175 15.72C60.7175 15.4 60.6508 15.1333 60.5175 14.92C60.3842 14.7067 60.1708 14.6 59.8775 14.6C59.1042 14.6 58.4108 14.8933 57.7975 15.48C57.1842 16.04 56.6508 16.6933 56.1975 17.44C55.7442 18.1867 55.3842 18.8533 55.1175 19.44ZM65.3984 25.08C64.5984 25.08 64.0518 24.8933 63.7584 24.52C63.4651 24.12 63.3184 23.64 63.3184 23.08C63.3184 22.3333 63.4784 21.5333 63.7984 20.68C64.1451 19.8267 64.4251 19.16 64.6384 18.68C64.2918 19.0533 63.9584 19.4133 63.6384 19.76C63.3184 20.1067 63.0918 20.36 62.9584 20.52C62.8784 20.6267 62.8118 20.68 62.7584 20.68C62.7051 20.68 62.6784 20.6133 62.6784 20.48C62.6784 20.2667 62.7451 20.0667 62.8784 19.88C63.2518 19.4 63.6784 18.8933 64.1584 18.36C64.6384 17.8267 65.1051 17.2667 65.5584 16.68C66.0918 15.6933 66.6784 14.5467 67.3184 13.24C67.9851 11.9067 68.6651 10.5467 69.3584 9.16C70.0784 7.74667 70.7718 6.45333 71.4384 5.28C72.1318 4.08 72.7451 3.12 73.2784 2.4C73.7318 2.21333 74.1584 1.97333 74.5584 1.68C74.9851 1.38667 75.3984 1.12 75.7984 0.879998C76.2251 0.613332 76.6651 0.479999 77.1184 0.479999C77.4118 0.479999 77.6251 0.559998 77.7584 0.719998C77.9184 0.879999 78.0251 1.06667 78.0784 1.28C78.1051 1.36 78.1184 1.50667 78.1184 1.72C78.1184 2.33333 77.9051 3.08 77.4784 3.96C77.0784 4.84 76.5984 5.70667 76.0384 6.56C75.5051 7.38667 75.0384 8.06667 74.6384 8.6C73.5718 10.0933 72.4784 11.4533 71.3584 12.68C70.2384 13.88 69.2251 14.8933 68.3184 15.72C67.4384 16.52 66.7984 17.1067 66.3984 17.48C66.2118 17.8267 65.9851 18.2933 65.7184 18.88C65.4784 19.44 65.2651 20.04 65.0784 20.68C64.8918 21.2933 64.7984 21.8667 64.7984 22.4C64.7984 22.8533 64.9051 23.24 65.1184 23.56C65.3318 23.8533 65.6918 24 66.1984 24C66.2784 24 66.3584 24 66.4384 24C66.5184 24 66.6118 23.9867 66.7184 23.96C67.1718 23.88 67.6651 23.6267 68.1984 23.2C68.7318 22.7733 69.2651 22.28 69.7984 21.72C70.3318 21.16 70.8118 20.6267 71.2384 20.12C71.4251 19.9067 71.5984 19.7067 71.7584 19.52C71.9184 19.3067 72.0251 19.16 72.0784 19.08C72.2651 19.2667 72.2518 19.5067 72.0384 19.8C71.8518 20.0667 71.6918 20.2933 71.5584 20.48C71.3718 20.72 71.1051 21.0533 70.7584 21.48C70.4118 21.88 70.0118 22.32 69.5584 22.8C69.0518 23.3067 68.4251 23.8133 67.6784 24.32C66.9318 24.8267 66.1718 25.08 65.3984 25.08ZM67.0784 15.88C67.9051 15.1867 68.9451 14.2 70.1984 12.92C71.4784 11.6133 72.7318 10.04 73.9584 8.2C74.0918 7.98667 74.3051 7.62667 74.5984 7.12C74.9184 6.61333 75.2384 6.04 75.5584 5.4C75.9051 4.73333 76.1984 4.09333 76.4384 3.48C76.6784 2.84 76.7984 2.29333 76.7984 1.84C76.7984 1.41333 76.6784 1.2 76.4384 1.2C76.1451 1.2 75.7584 1.45333 75.2784 1.96C74.7184 2.54667 74.0784 3.41333 73.3584 4.56C72.6651 5.68 71.9318 6.93333 71.1584 8.32C70.3851 9.70667 69.6384 11.0667 68.9184 12.4C68.2251 13.7333 67.6118 14.8933 67.0784 15.88ZM71.5531 25.56C71.4465 25.56 71.4465 25.4533 71.5531 25.24C71.6865 25 71.8065 24.7333 71.9131 24.44C72.0465 24.1467 72.1798 23.8267 72.3131 23.48C72.5798 22.84 72.8731 22.12 73.1931 21.32C73.5131 20.52 73.8198 19.7467 74.1131 19C74.4065 18.2267 74.6598 17.5733 74.8731 17.04C75.1131 16.48 75.2731 16.12 75.3531 15.96C74.9798 16.36 74.5265 16.8667 73.9931 17.48C73.4865 18.0667 73.0065 18.64 72.5531 19.2C72.0998 19.76 71.7531 20.2 71.5131 20.52C71.4331 20.6267 71.3665 20.68 71.3131 20.68C71.2598 20.68 71.2331 20.6133 71.2331 20.48C71.2331 20.2667 71.2998 20.0667 71.4331 19.88C71.9398 19.24 72.4998 18.52 73.1131 17.72C73.7531 16.92 74.3265 16.1867 74.8331 15.52C75.3398 14.8267 75.6598 14.3733 75.7931 14.16C76.0865 14.1067 76.5131 14.0267 77.0731 13.92C77.6598 13.8133 78.0598 13.6667 78.2731 13.48C78.3531 13.4 78.4331 13.36 78.5131 13.36C78.5665 13.36 78.5931 13.4133 78.5931 13.52C78.6198 13.6 78.5931 13.6933 78.5131 13.8C78.3531 13.96 78.1131 14.3067 77.7931 14.84C77.4998 15.3733 77.1665 15.9867 76.7931 16.68C76.4198 17.3733 76.0598 18.04 75.7131 18.68C75.9798 18.28 76.3265 17.8133 76.7531 17.28C77.2065 16.72 77.6998 16.1867 78.2331 15.68C78.7665 15.1467 79.2998 14.7067 79.8331 14.36C80.3931 14.0133 80.9131 13.84 81.3931 13.84C81.7398 13.84 82.0331 13.92 82.2731 14.08C82.5131 14.2133 82.6998 14.4667 82.8331 14.84C82.9131 15.0267 82.9531 15.24 82.9531 15.48C82.9531 15.9333 82.8331 16.3733 82.5931 16.8C82.3798 17.2 82.2198 17.5067 82.1131 17.72C82.0865 17.8 81.9931 17.88 81.8331 17.96C81.6731 18.0133 81.6065 17.9867 81.6331 17.88C81.6598 17.7467 81.6731 17.6133 81.6731 17.48C81.6998 17.3467 81.7131 17.2 81.7131 17.04C81.7131 16.5867 81.6198 16.1733 81.4331 15.8C81.2731 15.4267 80.9665 15.24 80.5131 15.24C80.0865 15.24 79.5665 15.5067 78.9531 16.04C78.3398 16.5733 77.7265 17.1867 77.1131 17.88C76.3398 18.7867 75.7265 19.6533 75.2731 20.48C74.8198 21.28 74.4465 22.0667 74.1531 22.84C73.9931 23.2667 73.8331 23.6933 73.6731 24.12C73.5131 24.52 73.3931 24.84 73.3131 25.08C72.9665 25.1067 72.6198 25.1867 72.2731 25.32C71.9265 25.48 71.6865 25.56 71.5531 25.56ZM78.0916 39C77.0782 39 76.1049 38.76 75.1716 38.28C74.2116 37.8267 73.5049 37.12 73.0516 36.16C72.8916 35.8133 72.7849 35.44 72.7316 35.04C72.6782 34.6667 72.6516 34.2933 72.6516 33.92V33.48C72.6516 33.2667 72.6782 33.0667 72.7316 32.88C72.7849 32.72 72.9182 32.64 73.1316 32.64C73.1849 32.64 73.2116 32.6667 73.2116 32.72C73.2116 32.88 73.1982 33.04 73.1716 33.2C73.1449 33.36 73.1316 33.5333 73.1316 33.72C73.1316 34.9467 73.5316 35.88 74.3316 36.52C75.1049 37.16 76.0782 37.48 77.2516 37.48C77.7316 37.48 78.2249 37.4267 78.7316 37.32C79.2382 37.2133 79.7182 37.0667 80.1716 36.88C81.8516 36.16 83.3049 35.1333 84.5316 33.8C85.7849 32.4933 86.8782 31.0133 87.8116 29.36C88.7449 27.7067 89.5849 26.0267 90.3316 24.32C90.7582 23.3067 91.1316 22.32 91.4516 21.36C91.7982 20.4 92.1049 19.5333 92.3716 18.76C92.1049 19.1333 91.7582 19.5867 91.3316 20.12C90.9049 20.6533 90.4782 21.1733 90.0516 21.68C89.6249 22.16 89.2516 22.5467 88.9316 22.84C88.2649 23.48 87.5449 24.0267 86.7716 24.48C86.0249 24.9067 85.2516 25.12 84.4516 25.12C84.1849 25.12 83.9582 25.0667 83.7716 24.96C83.5849 24.8533 83.4916 24.6533 83.4916 24.36C83.4916 23.9867 83.5849 23.5467 83.7716 23.04C83.9849 22.5333 84.2116 22.0267 84.4516 21.52C84.6916 21.0133 84.8916 20.6 85.0516 20.28C85.3716 19.6667 85.6782 19.0533 85.9716 18.44C86.2649 17.8267 86.5182 17.3067 86.7316 16.88C86.9449 16.48 87.0516 16.2133 87.0516 16.08C87.0516 15.8667 86.8916 15.8667 86.5716 16.08C86.2782 16.2933 85.9982 16.5067 85.7316 16.72C85.1449 17.28 84.5316 17.9467 83.8916 18.72C83.2516 19.4667 82.7582 20.0667 82.4116 20.52C82.3316 20.6267 82.2649 20.68 82.2116 20.68C82.1582 20.68 82.1316 20.6133 82.1316 20.48C82.1316 20.2667 82.1982 20.0667 82.3316 19.88C82.7049 19.3467 83.1449 18.76 83.6516 18.12C84.1582 17.48 84.6782 16.8667 85.2116 16.28C85.7182 15.7467 86.2382 15.2267 86.7716 14.72C87.3049 14.2133 87.9849 13.96 88.8116 13.96C89.3716 13.96 89.6516 14.1733 89.6516 14.6C89.6516 14.9733 89.4916 15.4 89.1716 15.88C88.9849 16.1733 88.6916 16.6667 88.2916 17.36C87.8916 18.0533 87.4782 18.8133 87.0516 19.64C86.6516 20.44 86.3049 21.1867 86.0116 21.88C85.7182 22.5733 85.5716 23.08 85.5716 23.4C85.5716 23.7733 85.7582 23.96 86.1316 23.96C86.4249 23.96 86.7849 23.8133 87.2116 23.52C87.6382 23.2 88.0782 22.8267 88.5316 22.4C89.3049 21.6533 90.0116 20.8267 90.6516 19.92C91.3182 19.0133 91.8916 18.1467 92.3716 17.32C92.4516 17.1867 92.5849 16.9467 92.7716 16.6C92.9849 16.2533 93.1982 15.92 93.4116 15.6C93.6516 15.28 93.8382 15.0933 93.9716 15.04C94.1049 14.9867 94.3716 14.84 94.7716 14.6C95.1716 14.36 95.5716 14.2 95.9716 14.12C96.3449 14.04 96.6249 14 96.8116 14C97.1049 14 97.2516 14.08 97.2516 14.24C97.2516 14.4533 97.1316 14.56 96.8916 14.56C96.5982 14.56 96.3316 14.64 96.0916 14.8C95.8516 14.9333 95.6649 15.1067 95.5316 15.32C95.2916 15.6667 94.9449 16.2933 94.4916 17.2C94.0649 18.1067 93.5849 19.16 93.0516 20.36C92.5449 21.5333 92.0382 22.7333 91.5316 23.96C91.0249 25.16 90.5582 26.2667 90.1316 27.28C89.4916 28.8 88.7582 30.28 87.9316 31.72C87.1049 33.1867 86.1316 34.4933 85.0116 35.64C83.9182 36.8133 82.6116 37.7333 81.0916 38.4C80.1849 38.8 79.1849 39 78.0916 39ZM134.197 29.44C133.424 29.44 132.624 29.16 131.797 28.6C130.997 28.0667 130.157 27.1867 129.277 25.96C128.931 25.4533 128.557 24.88 128.157 24.24C127.784 23.6 127.411 22.9467 127.037 22.28C126.611 22.7067 126.171 23.12 125.717 23.52C125.264 23.8933 124.717 24.28 124.077 24.68C122.984 25.3733 121.931 25.8667 120.917 26.16C119.904 26.48 118.944 26.64 118.037 26.64C117.104 26.64 116.251 26.48 115.477 26.16C114.731 25.84 114.117 25.4133 113.637 24.88C112.917 24.08 112.557 23.1467 112.557 22.08C112.557 21.0933 112.811 20.1867 113.317 19.36C113.851 18.5333 114.464 17.8133 115.157 17.2C116.251 16.24 117.451 15.4267 118.757 14.76C120.064 14.0667 121.331 13.36 122.557 12.64L122.597 12.6C122.304 11.6667 122.157 10.7733 122.157 9.92C122.157 9.68 122.171 9.44 122.197 9.2C122.251 8.93333 122.291 8.68 122.317 8.44C122.531 7.48 122.944 6.78667 123.557 6.36C124.197 5.90667 124.837 5.68 125.477 5.68C126.091 5.68 126.611 5.85333 127.037 6.2C127.491 6.54667 127.717 7.02667 127.717 7.64C127.717 8.2 127.504 8.77333 127.077 9.36C126.651 9.94667 126.144 10.4933 125.557 11C124.997 11.5067 124.464 11.9333 123.957 12.28C124.171 12.7867 124.464 13.4533 124.837 14.28C125.237 15.08 125.651 15.9067 126.077 16.76H131.437C131.811 16.76 132.184 16.76 132.557 16.76C132.957 16.7333 133.251 16.64 133.437 16.48C133.491 16.4267 133.544 16.4133 133.597 16.44C133.651 16.4667 133.651 16.5333 133.597 16.64L132.877 17.72C132.797 17.9067 132.637 18 132.397 18C132.317 18 132.224 18 132.117 18C132.011 18 131.877 17.9867 131.717 17.96C131.397 17.9067 131.051 17.8667 130.677 17.84C130.331 17.7867 129.971 17.7467 129.597 17.72C129.491 18.2 129.317 18.72 129.077 19.28C128.837 19.84 128.571 20.3467 128.277 20.8C128.757 21.6267 129.237 22.4267 129.717 23.2C130.197 23.9467 130.637 24.5867 131.037 25.12C131.837 26.1333 132.584 26.8533 133.277 27.28C133.971 27.7067 134.611 27.92 135.197 27.92C136.104 27.92 136.917 27.5733 137.637 26.88C138.384 26.2133 139.051 25.4933 139.637 24.72C139.717 24.6133 139.797 24.56 139.877 24.56C140.011 24.56 140.077 24.64 140.077 24.8C140.077 24.96 140.024 25.0933 139.917 25.2C138.984 26.5067 138.051 27.5333 137.117 28.28C136.184 29.0533 135.211 29.44 134.197 29.44ZM123.797 11.84C124.571 11.3067 125.264 10.7067 125.877 10.04C126.517 9.34667 126.931 8.65333 127.117 7.96C127.144 7.88 127.157 7.8 127.157 7.72C127.157 7.64 127.157 7.57333 127.157 7.52C127.157 7.06667 127.011 6.73333 126.717 6.52C126.424 6.28 126.091 6.16 125.717 6.16C125.291 6.16 124.851 6.33333 124.397 6.68C123.971 7 123.664 7.54667 123.477 8.32C123.451 8.48 123.424 8.64 123.397 8.8C123.397 8.96 123.397 9.12 123.397 9.28C123.397 9.78667 123.437 10.28 123.517 10.76C123.624 11.2133 123.717 11.5733 123.797 11.84ZM119.597 24.68C121.064 24.68 122.411 24.44 123.637 23.96C124.197 23.7467 124.731 23.4267 125.237 23C125.771 22.5733 126.251 22.1067 126.677 21.6C126.437 21.1467 126.131 20.56 125.757 19.84C125.384 19.12 124.984 18.32 124.557 17.44C124.024 17.4667 123.411 17.56 122.717 17.72C122.024 17.88 121.424 18.1467 120.917 18.52C120.437 18.8933 120.224 19.4267 120.277 20.12C120.277 20.3067 120.317 20.5467 120.397 20.84C120.504 21.1067 120.571 21.28 120.597 21.36L120.277 21.6C120.091 21.2533 119.837 20.8267 119.517 20.32C119.224 19.8133 119.064 19.44 119.037 19.2C119.011 18.96 119.011 18.6667 119.037 18.32C119.091 17.9733 119.277 17.6667 119.597 17.4C119.944 17.1067 120.424 16.92 121.037 16.84C121.651 16.7333 122.291 16.68 122.957 16.68C123.171 16.68 123.384 16.6933 123.597 16.72C123.811 16.72 124.011 16.72 124.197 16.72C123.957 16.1333 123.704 15.5333 123.437 14.92C123.197 14.3067 122.957 13.6933 122.717 13.08L122.357 13.32C121.317 13.96 120.224 14.6667 119.077 15.44C117.957 16.2133 117.011 17.08 116.237 18.04C115.891 18.4667 115.584 18.9867 115.317 19.6C115.077 20.2133 114.957 20.8267 114.957 21.44C114.957 21.7867 115.011 22.1467 115.117 22.52C115.251 22.8667 115.451 23.1867 115.717 23.48C116.171 23.9067 116.731 24.2133 117.397 24.4C118.091 24.5867 118.824 24.68 119.597 24.68ZM127.837 20.04C128.077 19.6667 128.304 19.2667 128.517 18.84C128.731 18.3867 128.904 17.9867 129.037 17.64C128.611 17.5867 128.184 17.5467 127.757 17.52C127.331 17.4933 126.891 17.4667 126.437 17.44C126.731 17.9467 126.984 18.4267 127.197 18.88C127.437 19.3333 127.651 19.72 127.837 20.04ZM155.889 26.16C154.475 26.16 153.115 25.9467 151.809 25.52C150.529 25.12 149.489 24.44 148.689 23.48C147.889 22.52 147.489 21.2267 147.489 19.6C147.489 17.8667 147.822 16.1733 148.489 14.52C149.155 12.8667 150.049 11.3333 151.169 9.92C152.289 8.48 153.542 7.24 154.929 6.2C156.155 5.26667 157.569 4.50667 159.169 3.92C160.795 3.33333 162.409 3.04 164.009 3.04C164.675 3.04 165.302 3.09333 165.889 3.2C166.475 3.28 167.075 3.46666 167.689 3.76C168.222 4 168.649 4.30667 168.969 4.68C169.289 5.02667 169.449 5.42667 169.449 5.88C169.449 5.93333 169.449 6 169.449 6.08C169.449 6.16 169.435 6.22667 169.409 6.28C169.302 6.70667 169.049 7.2 168.649 7.76C168.275 8.29333 167.982 8.85333 167.769 9.44C167.742 9.54667 167.595 9.64 167.329 9.72C167.062 9.77333 166.955 9.74667 167.009 9.64C167.222 9.29333 167.382 8.86667 167.489 8.36C167.622 7.85333 167.689 7.34667 167.689 6.84C167.689 6.46667 167.649 6.12 167.569 5.8C167.515 5.45333 167.409 5.16 167.249 4.92C166.982 4.44 166.569 4.10667 166.009 3.92C165.449 3.73333 164.849 3.64 164.209 3.64C163.595 3.64 162.982 3.70667 162.369 3.84C161.755 3.97333 161.222 4.12 160.769 4.28C159.222 4.84 157.742 5.72 156.329 6.92C155.075 8.01333 153.955 9.28 152.969 10.72C152.009 12.16 151.249 13.64 150.689 15.16C150.129 16.68 149.849 18.1333 149.849 19.52C149.849 20.9333 150.155 22.0533 150.769 22.88C151.382 23.7067 152.182 24.2933 153.169 24.64C154.155 24.9867 155.222 25.16 156.369 25.16C157.382 25.16 158.382 25.0533 159.369 24.84C160.382 24.6267 161.302 24.36 162.129 24.04C163.542 23.5067 164.809 22.8533 165.929 22.08C167.075 21.3067 168.142 20.3067 169.129 19.08C169.262 18.9467 169.355 18.88 169.409 18.88C169.489 18.88 169.529 18.9333 169.529 19.04C169.529 19.2533 169.422 19.5067 169.209 19.8C168.302 21.0267 167.275 22.0533 166.129 22.88C164.982 23.7067 163.755 24.3867 162.449 24.92C161.569 25.2667 160.542 25.56 159.369 25.8C158.222 26.04 157.062 26.16 155.889 26.16ZM169.063 25.08C168.636 25.08 168.249 25 167.903 24.84C167.583 24.6533 167.423 24.2667 167.423 23.68C167.423 22.7467 167.663 21.8133 168.143 20.88C168.623 19.92 169.116 19.08 169.623 18.36C170.076 17.7467 170.583 17.1733 171.143 16.64C171.729 16.08 172.356 15.6 173.023 15.2C173.449 14.9333 174.023 14.6533 174.743 14.36C175.489 14.04 176.116 13.88 176.623 13.88C177.049 13.88 177.423 14 177.743 14.24C178.063 14.4533 178.223 14.8533 178.223 15.44C178.223 16.3467 177.983 17.28 177.503 18.24C177.049 19.1733 176.569 20 176.063 20.72C175.823 21.04 175.583 21.3467 175.343 21.64C175.103 21.9067 174.836 22.1867 174.543 22.48C175.529 22.48 176.436 22.2 177.263 21.64C178.089 21.0533 178.809 20.3467 179.423 19.52L179.503 19.44C179.583 19.44 179.623 19.52 179.623 19.68C179.623 19.8667 179.569 20.04 179.463 20.2C178.929 20.9467 178.263 21.6133 177.463 22.2C176.663 22.76 175.756 23.04 174.743 23.04C174.636 23.04 174.529 23.04 174.423 23.04C174.316 23.04 174.209 23.0267 174.103 23C172.609 24.3867 170.929 25.08 169.063 25.08ZM170.103 24.4C170.476 24.4 170.876 24.2667 171.303 24C171.756 23.7333 172.103 23.48 172.342 23.24C172.796 22.7867 173.209 22.3067 173.583 21.8C173.956 21.2667 174.303 20.7333 174.623 20.2C174.996 19.56 175.369 18.8 175.743 17.92C176.116 17.04 176.303 16.2133 176.303 15.44C176.303 14.8267 176.089 14.52 175.663 14.52C175.316 14.52 174.889 14.6667 174.383 14.96C173.903 15.2533 173.543 15.52 173.303 15.76C172.396 16.6933 171.636 17.7067 171.023 18.8C170.676 19.4133 170.303 20.1333 169.903 20.96C169.503 21.7867 169.303 22.5467 169.303 23.24C169.303 23.3467 169.303 23.4533 169.303 23.56C169.329 23.64 169.356 23.7333 169.383 23.84C169.489 24.2133 169.729 24.4 170.103 24.4Z" fill="#F3F3D6"/>
</g>
<defs>
<filter id="filter0_di_1_5" x="0.471558" y="0.479996" width="183.151" height="46.52" filterUnits="userSpaceOnUse" color-interpolation-filters="sRGB">
<feFlood flood-opacity="0" result="BackgroundImageFix"/>
<feColorMatrix in="SourceAlpha" type="matrix" values="0 0 0 0 0 0 0 0 0 0 0 0 0 0 0 0 0 0 127 0" result="hardAlpha"/>
<feOffset dy="4"/>
<feGaussianBlur stdDeviation="2"/>
<feComposite in2="hardAlpha" operator="out"/>
<feColorMatrix type="matrix" values="0 0 0 0 0 0 0 0 0 0 0 0 0 0 0 0 0 0 0.25 0"/>
<feBlend mode="normal" in2="BackgroundImageFix" result="effect1_dropShadow_1_5"/>
<feBlend mode="normal" in="SourceGraphic" in2="effect1_dropShadow_1_5" result="shape"/>
<feColorMatrix in="SourceAlpha" type="matrix" values="0 0 0 0 0 0 0 0 0 0 0 0 0 0 0 0 0 0 127 0" result="hardAlpha"/>
<feOffset dy="4"/>
<feGaussianBlur stdDeviation="2"/>
<feComposite in2="hardAlpha" operator="arithmetic" k2="-1" k3="1"/>
<feColorMatrix type="matrix" values="0 0 0 0 0 0 0 0 0 0 0 0 0 0 0 0 0 0 0.25 0"/>
<feBlend mode="normal" in2="shape" result="effect2_innerShadow_1_5"/>
</filter>
</defs>
</svg>
